<svg xmlns="http://www.w3.org/2000/svg" width="16" height="16" viewBox="0 0 16 16">
  <path fill="#FFFFFF" fill-rule="evenodd" d="M5.71001758,13.6585886 C5.00778865,13.4103863 4.36555984,13.0351677 3.81093555,12.5605371 L2.00181179,13.6050352 C1.56289809,13.1580934 1.17606605,12.659833 0.851143811,12.1200822 L0.705034793,11.8670139 C0.406363876,11.3271331 0.168292875,10.7490623 3.4139358e-14,10.1419796 L1.81006113,9.09694037 C1.74435734,8.74129789 1.71001758,8.37465919 1.71001758,8 C1.71001758,7.62534081 1.74435734,7.25870211 1.81006113,6.90305963 L0,5.85802035 C0.168292875,5.25093775 0.406363876,4.67286693 0.705034795,4.13298609 L0.851143867,3.87991775 C1.17606605,3.34016699 1.56289809,2.84190659 2.00181179,2.39496477 L3.81093555,3.43946286 C4.36555984,2.96483234 5.00778865,2.58961373 5.71001758,2.34141142 L5.71001758,0.25203497 C6.34925742,0.0875060063 7.01941844,0 7.71001758,0 C8.40061672,0 9.07077774,0.0875060063 9.71001758,0.25203497 L9.71001758,2.34141142 C10.4122465,2.58961373 11.0544753,2.96483234 11.6090996,3.43946286 L13.4182234,2.39496477 C13.8571371,2.84190659 14.2439691,3.34016699 14.5688913,3.87991785 L14.7150004,4.13298609 C15.0136713,4.67286693 15.2517423,5.25093775 15.4200352,5.85802035 L13.609974,6.90305963 C13.6756778,7.25870211 13.7100176,7.62534081 13.7100176,8 C13.7100176,8.37465919 13.6756778,8.74129789 13.609974,9.09694037 L15.4200352,10.1419796 C15.2517423,10.7490623 15.0136713,11.3271331 14.7150004,11.8670139 L14.5688913,12.1200822 C14.2439691,12.659833 13.8571371,13.1580934 13.4182234,13.6050352 L11.6090996,12.5605371 C11.0544753,13.0351677 10.4122465,13.4103863 9.71001758,13.6585886 L9.71001758,15.747965 C9.07077774,15.912494 8.40061672,16 7.71001758,16 C7.01941844,16 6.34925742,15.912494 5.71001758,15.747965 L5.71001758,13.6585886 Z M7.71001758,11 C9.36687183,11 10.7100176,9.65685425 10.7100176,8 C10.7100176,6.34314575 9.36687183,5 7.71001758,5 C6.05316333,5 4.71001758,6.34314575 4.71001758,8 C4.71001758,9.65685425 6.05316333,11 7.71001758,11 Z"/>
</svg>
